<svg
        xmlns="http://www.w3.org/2000/svg"
        width="36"
        height="36"
        viewBox="0 0 29 28"
        fill="none"
>
    <path
            d="M14.213.285A13.939 13.939 0 004.379 4.34a13.815 13.815 0 00-4.074 9.79c0 3.673 1.466 7.194 4.074 9.79a13.938 13.938 0 009.834 4.056c3.688 0 7.225-1.459 9.834-4.055a13.814 13.814 0 004.073-9.79c0-3.672-1.465-7.194-4.073-9.79A13.939 13.939 0 0014.213.284z"
            fill="#29B6F6"
    />
    <path
            d="M21.131 7.9l-2.604 13.24s-.112.606-.866.606c-.4 0-.607-.19-.607-.19l-5.642-4.661-2.76-1.385-3.544-.938s-.63-.182-.63-.701c0-.433.648-.639.648-.639L19.95 7.37s.452-.163.783-.162c.203 0 .434.086.434.346 0 .173-.035.346-.035.346z"
            fill="#fff"
    />
    <path
            d="M13.517 18.634l-2.382 2.336s-.104.08-.242.083a.345.345 0 01-.152-.03l.67-4.13 2.106 1.74z"
            fill="#B0BEC5"
    />
    <path
            d="M18.313 10.113a.349.349 0 00-.487-.065L8.65 15.515s1.464 4.079 1.687 4.785c.224.707.404.723.404.723l.67-4.129 6.837-6.297a.344.344 0 00.065-.484z"
            fill="#CFD8DC"
    />
</svg>